<?xml version="1.0" encoding="utf-8"?>
<!-- Generator: Adobe Illustrator 21.0.0, SVG Export Plug-In . SVG Version: 6.00 Build 0)  -->
<svg version="1.1" id="Layer_1" xmlns="http://www.w3.org/2000/svg" xmlns:xlink="http://www.w3.org/1999/xlink" x="0px" y="0px"
	 viewBox="0 0 512 512" style="enable-background:new 0 0 512 512;fill: #808080;" xml:space="preserve">
<g>
	<path d="M491.9,156.4c-19.5-46-51.9-85-92.7-112.6C358.3,16.1,308.9,0,256,0c-35.3,0-69,7.2-99.6,20.1c-46,19.5-85,51.9-112.6,92.7
		C16.1,153.7,0,203.1,0,256c0,35.3,7.2,69,20.1,99.6c19.5,46,51.9,85,92.7,112.6C153.7,495.9,203.1,512,256,512
		c35.3,0,69-7.2,99.6-20.1c46-19.5,85-51.9,112.6-92.7C495.9,358.3,512,308.9,512,256C512,220.7,504.8,187,491.9,156.4z M472.6,256
		c0,29.9-6.1,58.4-17,84.3c-16.4,38.8-43.9,72-78.5,95.3c-17.3,11.7-36.3,20.9-56.7,27.3c-20.3,6.3-41.9,9.7-64.4,9.7
		c-29.9,0-58.4-6.1-84.3-17c-38.8-16.4-72-43.9-95.3-78.5c-11.7-17.3-20.9-36.3-27.3-56.7c-6.3-20.3-9.7-41.9-9.7-64.4
		c0-29.9,6.1-58.4,17-84.3c16.4-38.8,43.9-72,78.5-95.3c17.3-11.7,36.3-20.9,56.7-27.3c20.3-6.3,41.9-9.7,64.4-9.7
		c29.9,0,58.4,6.1,84.3,17c38.8,16.4,72,43.9,95.3,78.5c11.7,17.3,20.9,36.3,27.3,56.7C469.2,211.9,472.6,233.5,472.6,256l19.7,0v0
		H472.6z"/>
	<path d="M374.1,285.4c-10.9,0-19.7,8.8-19.7,19.7v34.5c0,2.1-0.4,4-1.2,5.7c-1.1,2.6-3,4.9-5.4,6.5c-1.2,0.8-2.5,1.4-3.8,1.8
		c-1.4,0.4-2.8,0.7-4.4,0.7h-34.5c-10.9,0-19.7,8.8-19.7,19.7s9,19.8,19.8,19.8h34.5c7.4,0,14.6-1.5,21.1-4.3
		c9.7-4.1,18-11,23.8-19.6c2.9-4.3,5.2-9.1,6.8-14.2c1.6-5.1,2.4-10.5,2.4-16.1v-34.5C393.8,294.2,385,285.4,374.1,285.4z"/>
	<path d="M369.9,127.4c-4.3-2.9-9.1-5.2-14.2-6.8c-5.1-1.6-10.5-2.4-16.1-2.4h-34.5c-10.9,0-19.7,8.8-19.7,19.7
		c0,10.9,8.8,19.7,19.7,19.7h34.5c2.1,0,4,0.4,5.7,1.2c2.6,1.1,4.9,3,6.5,5.4c0.8,1.2,1.4,2.5,1.8,3.8c0.4,1.4,0.7,2.8,0.7,4.4v34.5
		c0,10.9,8.8,19.7,19.7,19.7c11-0.1,19.8-9,19.8-19.8v-34.5c0-7.4-1.5-14.6-4.3-21.1C385.4,141.5,378.5,133.2,369.9,127.4z"/>
	<path d="M206.8,354.5h-34.5c-2.1,0-4-0.4-5.7-1.2c-2.6-1.1-4.9-3-6.5-5.4c-0.8-1.2-1.4-2.5-1.8-3.8c-0.4-1.4-0.7-2.8-0.7-4.4v-34.5
		c0-10.9-8.8-19.7-19.7-19.7c-10.9,0-19.7,8.8-19.7,19.7v34.5c0,7.4,1.5,14.6,4.3,21.1c4.1,9.7,11,18,19.6,23.8
		c4.3,2.9,9.1,5.2,14.2,6.8c5.1,1.6,10.5,2.4,16.1,2.4h34.5c10.9,0,19.7-8.8,19.7-19.7S217.6,354.5,206.8,354.5z"/>
	<path d="M137.9,226.6c10.8-0.1,19.6-9,19.6-19.8v-34.5c0-2.1,0.4-4,1.2-5.7c1.1-2.6,3-4.9,5.4-6.5c1.2-0.8,2.5-1.4,3.8-1.8
		c1.4-0.4,2.8-0.7,4.4-0.7h34.5c10.9,0,19.7-8.8,19.7-19.7c0-10.9-8.8-19.7-19.7-19.7h-34.5c-7.4,0-14.6,1.5-21.1,4.3
		c-9.7,4.1-18,11-23.8,19.6c-2.9,4.3-5.2,9.1-6.8,14.2c-1.6,5.1-2.4,10.5-2.4,16.1v34.5C118.2,217.8,127,226.6,137.9,226.6z"/>
</g>
</svg>
